# xmcd CD database file
#
# Track frame offsets:
#	151
#	16306
#	33544
#	48078
#	62223
#	72353
#	86728
#	101177
#	114129
#	131970
#	143773
#	160245
#	172911
#	185332
#	201265
#	216663
#	231284
#	248845
#	260225
#	269849
#	285008
#	294204
#	306936
#	330056
#
# Disc length: 4562 seconds
#
# Revision: 0
# Processed by: cddbd v1.5.2PL0 Copyright (c) Steve Scherf et al.
# Submitted via: CDex 1.51
#
DISCID=6811d018
DTITLE=Ottilie Patterson with Chris Barber's Jazz Band - 1955-1962
DYEAR=1955
DGENRE=Jazz
TTITLE0=Make Me A Pallet On The Floor
TTITLE1=Nobody Knows You When You;re Down And Out
TTITLE2=Reckless Blues
TTITLE3=There'll Be A Hot Time In The Old Town Tonight
TTITLE4=Lordy, Lord (It Hurts SO Bad)
TTITLE5=Little Town In Old County Down
TTITLE6=How Long, How Long Blues
TTITLE7=I'm Crazy 'bout My Baby
TTITLE8=T'aint Nobody's Bizness
TTITLE9=The Real Old Mountain Dew
TTITLE10=Blueberry Hill
TTITLE11=T'aint What You Do It's The Way Taht You Do It 
TTITLE12=I Can't Give You Anything But Love
TTITLE13=Squeeze Me
TTITLE14=Mopuntains Of Mourne
TTITLE15=Basin STreet Blues
TTITLE16=St Louis Blues
TTITLE17='taint No Sin
TTITLE18=Kay Cee Rider
TTITLE19=Trouble In Mind
TTITLE20=I Wish I Could Shimme Like My Sister Kate
TTITLE21=Ugly Child
TTITLE22=New St Louis Blues
TTITLE23=Trombone Cholly
EXTD=YEAR: 1955
EXTT0=
EXTT1=
EXTT2=
EXTT3=
EXTT4=
EXTT5=
EXTT6=
EXTT7=
EXTT8=
EXTT9=
EXTT10=
EXTT11=
EXTT12=
EXTT13=
EXTT14=
EXTT15=
EXTT16=
EXTT17=
EXTT18=
EXTT19=
EXTT20=
EXTT21=
EXTT22=
EXTT23=
PLAYORDER=
